<svg width="40" height="40" viewBox="0 0 40 40" fill="none" xmlns="http://www.w3.org/2000/svg">
<path d="M33.3334 20C33.3334 27.35 27.35 33.3333 20 33.3333C12.65 33.3333 6.66671 27.35 6.66671 20C6.66671 12.65 12.65 6.66662 20 6.66662C27.35 6.66662 33.3334 12.65 33.3334 20ZM36.6667 20C36.6667 10.8 29.2 3.33329 20 3.33329C10.8 3.33329 3.33337 10.8 3.33337 20C3.33337 29.2 10.8 36.6666 20 36.6666C29.2 36.6666 36.6667 29.2 36.6667 20ZM20 21.6666L26.6667 21.6666L26.6667 18.3333L20 18.3333L20 13.3333L13.3334 20L20 26.6666L20 21.6666Z" fill="#CC3333"/>
</svg>
