<svg width="40" height="40" viewBox="0 0 40 40" fill="none" xmlns="http://www.w3.org/2000/svg">
<path d="M6.66662 20C6.66662 12.65 12.65 6.66671 20 6.66671C27.35 6.66671 33.3333 12.65 33.3333 20C33.3333 27.35 27.35 33.3334 20 33.3334C12.65 33.3334 6.66662 27.35 6.66662 20ZM3.33329 20C3.33329 29.2 10.8 36.6667 20 36.6667C29.2 36.6667 36.6666 29.2 36.6666 20C36.6666 10.8 29.2 3.33337 20 3.33337C10.8 3.33337 3.33329 10.8 3.33329 20ZM20 18.3334L13.3333 18.3334L13.3333 21.6667L20 21.6667L20 26.6667L26.6666 20L20 13.3334L20 18.3334Z" fill="#CC3333"/>
</svg>
